
  <svg
    width="1000"
    height="1000"
    viewBox="0 0 1000 1000"
    xmlns="http://www.w3.org/2000/svg"
  >
    <defs>
      <filter id="grain" x="-50vw" y="-50vh" width="100vw" height="100vh">
    <feFlood flood-color="#ffffff" result="neutral-gray" />

    <feTurbulence
      in="neutral-gray"
      type="fractalNoise"
      baseFrequency="2.5"
      numOctaves="100"
      stitchTiles="stitch"
      result="noise"
    />

    <feColorMatrix
      in="noise"
      type="saturate"
      values="0"
      result="destaturatedNoise"
    ></feColorMatrix>

    <feComponentTransfer in="desaturatedNoise" result="theNoise">
      <feFuncA type="table" tableValues="0 0 0.3 0"></feFuncA>
    </feComponentTransfer>

    <feBlend
      in="SourceGraphic"
      in2="theNoise"
      mode="soft-light"
      result="noisy-image"
    />
  </filter>


      <radialGradient
      id="radialGradientId"
      r="100%"
      cx="50%"
      cy="50%"
    >
      <stop offset="0%"  stop-color="#F561CB" />
			<stop offset="100%"  stop-color="#7aa2e6" />
    </radialGradient>



      <clipPath id="shape">
        <path fill="currentColor" d="M765,574.5Q649,649,574.5,729.5Q500,810,374,781Q248,752,203,626Q158,500,209,380Q260,260,380,211Q500,162,662.5,168.5Q825,175,853,337.5Q881,500,765,574.5Z"></path>
      </clipPath>
    </defs>



    <g filter="url(#grain)" clip-path="url(#shape)">
      <path fill="url(#radialGradientId)" d="M765,574.5Q649,649,574.5,729.5Q500,810,374,781Q248,752,203,626Q158,500,209,380Q260,260,380,211Q500,162,662.5,168.5Q825,175,853,337.5Q881,500,765,574.5Z" />
    </g>


  <text x="360" y="450" style="
  font-size:3em; font-weight:bold; font-family:'Comfortaa',sans-serif;" fill="white">
  JOIN TODAY
  </text>
  </svg>
